<svg width="30" height="31" viewBox="0 0 30 31" fill="none" xmlns="http://www.w3.org/2000/svg">
<path d="M15 28.9375C7.5875 28.9375 1.5625 22.9125 1.5625 15.5C1.5625 8.0875 7.5875 2.0625 15 2.0625C22.4125 2.0625 28.4375 8.0875 28.4375 15.5C28.4375 22.9125 22.4125 28.9375 15 28.9375ZM15 3.9375C8.625 3.9375 3.4375 9.125 3.4375 15.5C3.4375 21.875 8.625 27.0625 15 27.0625C21.375 27.0625 26.5625 21.875 26.5625 15.5C26.5625 9.125 21.375 3.9375 15 3.9375Z" fill="white"/>
<path d="M19.6363 20.4127C19.4738 20.4127 19.3113 20.3752 19.1613 20.2752L15.2863 17.9627C14.3238 17.3877 13.6113 16.1252 13.6113 15.0127V9.8877C13.6113 9.3752 14.0363 8.9502 14.5488 8.9502C15.0613 8.9502 15.4863 9.3752 15.4863 9.8877V15.0127C15.4863 15.4627 15.8613 16.1252 16.2488 16.3502L20.1238 18.6627C20.5738 18.9252 20.7113 19.5002 20.4488 19.9502C20.2613 20.2502 19.9488 20.4127 19.6363 20.4127Z" fill="white"/>
</svg>
