<svg width="182" height="25" viewBox="0 0 182 25" fill="none" xmlns="http://www.w3.org/2000/svg">
<path d="M82.0584 12.8772C82.0584 15.011 81.4183 16.6913 80.1647 17.9449C78.7511 19.4385 76.884 20.1853 74.5902 20.1853C72.3765 20.1853 70.5094 19.4119 68.9891 17.8915C67.4688 16.3712 66.6953 14.4775 66.6953 12.2371C66.6953 9.99663 67.4688 8.10292 68.9891 6.58261C70.5094 5.06231 72.3765 4.28882 74.5902 4.28882C75.7105 4.28882 76.7507 4.47552 77.7642 4.8756C78.7511 5.27568 79.5779 5.8358 80.2181 6.55594L78.8044 7.96956C78.3243 7.40944 77.7376 6.95602 76.9907 6.63596C76.2439 6.31589 75.4438 6.15586 74.5902 6.15586C72.9366 6.15586 71.523 6.71597 70.3761 7.88954C69.2558 9.06311 68.669 10.5034 68.669 12.2371C68.669 13.9708 69.2292 15.4377 70.3761 16.5846C71.523 17.7315 72.9366 18.3183 74.5902 18.3183C76.1106 18.3183 77.3641 17.8915 78.3777 17.038C79.3912 16.1845 79.9513 15.011 80.1114 13.544H74.5902V11.7303H81.9517C82.0318 12.1304 82.0584 12.5038 82.0584 12.8772Z" fill="white"/>
<path d="M84.4316 19.8654V4.66235H89.0726C91.3931 4.66235 93.2601 5.35583 94.6737 6.76944C96.0873 8.18306 96.7808 9.99676 96.7808 12.2639C96.7808 14.531 96.0873 16.3714 94.6737 17.785C93.2601 19.1719 91.3931 19.8654 89.0726 19.8654H84.4316ZM86.3787 6.52939V17.9984H89.0726C90.8329 17.9984 92.2466 17.4916 93.2601 16.4781C94.2736 15.4645 94.7804 14.0509 94.7804 12.2639C94.7804 10.4769 94.2736 9.08991 93.2601 8.0497C92.2466 7.03616 90.8329 6.52939 89.0726 6.52939H86.3787Z" fill="white"/>
<path d="M113.744 12.8775C113.744 15.0112 113.104 16.6915 111.85 17.9451C110.437 19.4388 108.57 20.1856 106.276 20.1856C104.062 20.1856 102.195 19.4121 100.675 17.8918C99.1544 16.3715 98.3809 14.4778 98.3809 12.2373C98.3809 9.99687 99.1544 8.10316 100.675 6.58286C102.195 5.06255 104.062 4.28906 106.276 4.28906C107.396 4.28906 108.436 4.47577 109.45 4.87585C110.437 5.27593 111.263 5.83604 111.904 6.55618L110.49 7.9698C110.01 7.40969 109.423 6.95626 108.676 6.6362C107.929 6.31614 107.129 6.1561 106.276 6.1561C104.622 6.1561 103.209 6.71622 102.062 7.88978C100.941 9.06335 100.355 10.5036 100.355 12.2373C100.355 13.971 100.915 15.438 102.062 16.5849C103.209 17.7318 104.622 18.3185 106.276 18.3185C107.796 18.3185 109.05 17.8918 110.063 17.0383C111.077 16.1848 111.637 15.0112 111.797 13.5443H106.276V11.7306H113.637C113.717 12.1306 113.744 12.504 113.744 12.8775Z" fill="white"/>
<path d="M121.053 19.8654H118.893L124.627 4.66235H126.841L132.575 19.8654H130.415L128.948 15.7312H122.547L121.053 19.8654ZM125.694 7.03616L123.213 13.8909H128.281L125.801 7.03616H125.694Z" fill="white"/>
<path d="M135.963 4.63574V19.8388H134.016V4.63574H135.963Z" fill="white"/>
<path d="M142.844 24.7995C142.257 24.7995 141.723 24.7195 141.217 24.5862C140.71 24.4261 140.23 24.2394 139.83 23.9727C139.403 23.706 139.056 23.3859 138.763 23.0125C138.469 22.6391 138.229 22.239 138.096 21.7856L139.936 21.0121C140.15 21.6256 140.523 22.1057 141.03 22.4791C141.563 22.8525 142.15 23.0392 142.844 23.0392C143.911 23.0392 144.737 22.7191 145.324 22.079C145.911 21.4389 146.204 20.5587 146.204 19.4385V18.4516H146.124C145.751 19.0117 145.244 19.4385 144.631 19.7585C143.991 20.0786 143.324 20.2386 142.577 20.2386C141.217 20.2386 140.043 19.7052 139.083 18.6383C138.123 17.5448 137.643 16.2378 137.643 14.6908C137.643 13.1439 138.123 11.8369 139.083 10.7701C140.07 9.70318 141.217 9.14307 142.577 9.14307C143.324 9.14307 143.991 9.3031 144.631 9.62316C145.271 9.94323 145.751 10.37 146.124 10.9301H146.204V9.4898H148.071V19.4651C148.071 21.1455 147.591 22.4524 146.658 23.3859C145.724 24.2928 144.444 24.7995 142.844 24.7995ZM142.924 18.4249C143.884 18.4249 144.684 18.0782 145.271 17.3847C145.911 16.6912 146.231 15.7844 146.231 14.6642C146.231 13.5706 145.911 12.6638 145.271 11.9703C144.657 11.2502 143.857 10.9034 142.924 10.9034C141.99 10.9034 141.19 11.2502 140.577 11.9703C139.936 12.6904 139.616 13.5706 139.616 14.6642C139.616 15.7577 139.936 16.6646 140.577 17.358C141.19 18.0515 141.99 18.4249 142.924 18.4249Z" fill="white"/>
<path d="M153.006 5.86253C153.006 6.23594 152.873 6.58267 152.606 6.84939C152.34 7.11612 152.019 7.24947 151.619 7.24947C151.246 7.24947 150.899 7.11612 150.633 6.84939C150.366 6.58267 150.232 6.26261 150.232 5.86253C150.232 5.48912 150.366 5.14239 150.633 4.87567C150.899 4.60895 151.219 4.47559 151.619 4.47559C151.993 4.47559 152.34 4.60895 152.606 4.87567C152.873 5.14239 153.006 5.48912 153.006 5.86253ZM152.606 9.43658V19.8387H150.659V9.43658H152.606Z" fill="white"/>
<path d="M159.728 20.1856C158.208 20.1856 156.928 19.6522 155.941 18.612C154.954 17.5718 154.447 16.2382 154.447 14.6379C154.447 13.0642 154.927 11.7306 155.888 10.6637C156.848 9.59686 158.075 9.09009 159.595 9.09009C161.142 9.09009 162.369 9.59686 163.276 10.5837C164.183 11.5706 164.636 12.9842 164.636 14.7712L164.609 14.9846H156.421C156.448 15.9981 156.794 16.825 157.435 17.4384C158.075 18.0519 158.875 18.372 159.782 18.372C161.035 18.372 161.995 17.7585 162.716 16.5049L164.449 17.3584C163.969 18.2386 163.329 18.9321 162.502 19.4122C161.702 19.9456 160.769 20.1856 159.728 20.1856ZM156.608 13.411H162.582C162.529 12.6908 162.236 12.0774 161.702 11.6239C161.169 11.1438 160.448 10.9038 159.568 10.9038C158.821 10.9038 158.208 11.1172 157.675 11.5706C157.114 12.024 156.768 12.6375 156.608 13.411Z" fill="white"/>
<path d="M168.396 19.8656H166.449V9.46356H168.316V11.1706H168.396C168.583 10.6105 169.01 10.157 169.623 9.75695C170.237 9.35687 170.85 9.17017 171.437 9.17017C171.997 9.17017 172.477 9.25018 172.877 9.43689L172.29 11.3306C172.05 11.2239 171.677 11.1706 171.144 11.1706C170.397 11.1706 169.757 11.464 169.223 12.0507C168.69 12.6375 168.396 13.331 168.396 14.1312V19.8656Z" fill="white"/>
<path d="M181.678 16.9583C181.678 17.8652 181.278 18.6387 180.478 19.2521C179.678 19.8656 178.691 20.1856 177.491 20.1856C176.45 20.1856 175.517 19.9189 174.717 19.3588C173.917 18.8254 173.357 18.1052 173.01 17.1984L174.743 16.4516C175.01 17.065 175.357 17.5718 175.864 17.9185C176.344 18.2653 176.877 18.452 177.464 18.452C178.077 18.452 178.611 18.3186 179.038 18.0519C179.464 17.7852 179.651 17.4651 179.651 17.0917C179.651 16.4249 179.144 15.9448 178.131 15.6247L176.344 15.1713C174.317 14.6645 173.303 13.6777 173.303 12.2374C173.303 11.2772 173.677 10.5304 174.45 9.94359C175.224 9.38348 176.21 9.09009 177.411 9.09009C178.344 9.09009 179.171 9.30346 179.918 9.75689C180.665 10.1836 181.171 10.7971 181.491 11.5172L179.758 12.2374C179.571 11.8106 179.224 11.4639 178.798 11.1972C178.344 10.9571 177.864 10.8238 177.304 10.8238C176.797 10.8238 176.344 10.9571 175.944 11.1972C175.544 11.4639 175.33 11.7573 175.33 12.1307C175.33 12.7175 175.89 13.1442 177.011 13.411L178.584 13.811C180.665 14.3445 181.678 15.3847 181.678 16.9583Z" fill="white"/>
<path fill-rule="evenodd" clip-rule="evenodd" d="M15.8526 0.527546L2.09092 8.49009C0.197929 9.57179 -0.433066 11.9756 0.648641 13.8686C1.73035 15.7615 4.13414 16.3925 6.02713 15.3108L19.7888 7.34829C21.6818 6.26659 22.3128 3.8628 21.2311 1.96982C20.1494 0.0768347 17.7456 -0.554158 15.8526 0.527546Z" fill="#EA4334"/>
<path fill-rule="evenodd" clip-rule="evenodd" d="M19.6677 16.4825L5.90603 8.55001C4.01305 7.4683 1.60925 8.0993 0.527547 9.99228C-0.55416 11.8853 0.0768357 14.289 1.96982 15.3708L15.7315 23.3032C17.6245 24.385 20.0283 23.754 21.11 21.861C22.1917 19.998 21.5607 17.5642 19.6677 16.4825Z" fill="#4285F4"/>
<path fill-rule="evenodd" clip-rule="evenodd" d="M28.8927 16.6026L42.6544 8.67012C44.5474 7.58842 46.9512 8.21941 48.0329 10.1124C49.1146 12.0054 48.4836 14.4092 46.5906 15.4909L32.8289 23.4534C30.9359 24.5351 28.5321 23.8741 27.4204 22.0111C26.3387 20.1182 26.9997 17.7144 28.8927 16.6026Z" fill="#FCBC05"/>
<path fill-rule="evenodd" clip-rule="evenodd" d="M32.949 0.647663L46.7107 8.61021C48.6037 9.69191 49.2347 12.0957 48.153 13.9887C47.0713 15.8817 44.6675 16.5127 42.7745 15.431L29.0128 7.46841C27.1198 6.3867 26.4888 3.98292 27.5705 2.08994C28.6522 0.196954 31.056 -0.434041 32.949 0.647663Z" fill="#0D9D58"/>
</svg>
