<svg id="Layer_1" data-name="Layer 1" xmlns="http://www.w3.org/2000/svg" viewBox="0 0 595.28 132"><defs><style>.cls-1{fill:#686d73;}.cls-2{fill:#fff;}.cls-3{fill:#e84435;}.cls-3,.cls-4,.cls-5,.cls-6{fill-rule:evenodd;}.cls-4{fill:#517cbe;}.cls-5{fill:#fcbd0f;}.cls-6{fill:#0c9e58;}.cls-7{font-size:8.54px;fill:#010101;font-family:AdobeArabic-Regular, Adobe Arabic;}</style></defs><path class="cls-1" d="M197.07,64.35q0,8.5-5,13.55-5.66,6-14.9,6A20.9,20.9,0,0,1,156,62.71a20.9,20.9,0,0,1,21.09-21.2,22.65,22.65,0,0,1,8.44,1.58,16.84,16.84,0,0,1,6.52,4.48l-3.74,3.74a12.57,12.57,0,0,0-4.85-3.54,16,16,0,0,0-6.37-1.27,15.27,15.27,0,0,0-11.23,4.59,16,16,0,0,0-4.54,11.62,16,16,0,0,0,4.54,11.62,15.27,15.27,0,0,0,11.23,4.59,15.1,15.1,0,0,0,10.09-3.4,13.6,13.6,0,0,0,4.65-9.35H177.12V61.29h19.67A17.33,17.33,0,0,1,197.07,64.35Z"/><path class="cls-1" d="M203.42,83V42.41h12.42q9.28,0,14.93,5.62t5.64,14.68q0,9.12-5.64,14.71T215.84,83Zm5.22-35.6V78h7.2Q222.92,78,227,74t4.09-11.25q0-7.14-4.09-11.23T215.84,47.4Z"/><path class="cls-1" d="M281.65,64.35q0,8.5-5,13.55-5.67,6-14.91,6a20.9,20.9,0,0,1-21.09-21.2,20.9,20.9,0,0,1,21.09-21.2,22.74,22.74,0,0,1,8.45,1.58,16.88,16.88,0,0,1,6.51,4.48l-3.74,3.74a12.54,12.54,0,0,0-4.84-3.54,16,16,0,0,0-6.38-1.27,15.28,15.28,0,0,0-11.23,4.59,16,16,0,0,0-4.53,11.62,16,16,0,0,0,4.53,11.62,15.28,15.28,0,0,0,11.23,4.59,15.08,15.08,0,0,0,10.09-3.4,13.6,13.6,0,0,0,4.65-9.35H261.7V61.29h19.67A17.33,17.33,0,0,1,281.65,64.35Z"/><path class="cls-1" d="M301.15,83h-5.78l15.31-40.59h5.89L331.88,83H326.1l-3.91-11H305.12Zm12.36-34.18-6.63,18.31h13.49l-6.63-18.31Z"/><path class="cls-1" d="M341,42.41V83h-5.21V42.41Z"/><path class="cls-1" d="M359.32,96.16a15.49,15.49,0,0,1-4.37-.6,14.21,14.21,0,0,1-3.71-1.67,12.1,12.1,0,0,1-2.86-2.55,10.82,10.82,0,0,1-1.82-3.29l4.94-2a7.81,7.81,0,0,0,2.94,3.91,8.3,8.3,0,0,0,4.88,1.47A8.62,8.62,0,0,0,366,88.84a9.88,9.88,0,0,0,2.38-7V79.15h-.22a10.37,10.37,0,0,1-4,3.49,12,12,0,0,1-5.47,1.27,12.27,12.27,0,0,1-9.35-4.25,15.35,15.35,0,0,1-3.86-10.55,15.12,15.12,0,0,1,3.86-10.48,12.2,12.2,0,0,1,9.35-4.31,12,12,0,0,1,5.47,1.27,10.37,10.37,0,0,1,4,3.49h.22V55.23h5V81.81q0,6.69-3.8,10.49A13.79,13.79,0,0,1,359.32,96.16Zm.17-17a8,8,0,0,0,6.29-2.78,10.31,10.31,0,0,0,2.55-7.26,10.33,10.33,0,0,0-2.55-7.19,8,8,0,0,0-6.29-2.84,8.14,8.14,0,0,0-6.29,2.84,10.33,10.33,0,0,0-2.55,7.19,10.22,10.22,0,0,0,2.55,7.2A8.1,8.1,0,0,0,359.49,79.15Z"/><path class="cls-1" d="M386.42,45.64a3.69,3.69,0,1,1-1.08-2.6A3.54,3.54,0,0,1,386.42,45.64Zm-1.08,9.59V83h-5.22V55.23Z"/><path class="cls-1" d="M404.33,83.91a13.31,13.31,0,0,1-10.09-4.19,14.81,14.81,0,0,1-4-10.61,15.1,15.1,0,0,1,3.86-10.57,13.86,13.86,0,0,1,19.7-.22q3.66,4,3.65,11.19l-.05.57H395.6a9,9,0,0,0,2.72,6.57,8.69,8.69,0,0,0,6.24,2.5q5,0,7.82-5L417,76.43a14,14,0,0,1-5.19,5.5A14.35,14.35,0,0,1,404.33,83.91ZM396,65.77h15.93A6.94,6.94,0,0,0,409.58,61a8.23,8.23,0,0,0-5.7-1.9,7.62,7.62,0,0,0-5.08,1.81A8.7,8.7,0,0,0,396,65.77Z"/><path class="cls-1" d="M427.46,83h-5.21V55.23h5v4.53h.22A7.57,7.57,0,0,1,430.72,56a9.06,9.06,0,0,1,4.85-1.56,9.79,9.79,0,0,1,3.85.68l-1.58,5a8.55,8.55,0,0,0-3.06-.4,6.76,6.76,0,0,0-5.14,2.38,8,8,0,0,0-2.18,5.56Z"/><path class="cls-1" d="M463,75.29a7.56,7.56,0,0,1-3.17,6.13,12.59,12.59,0,0,1-8,2.49,12.75,12.75,0,0,1-7.37-2.18A12,12,0,0,1,439.88,76l4.65-2a8.62,8.62,0,0,0,3,3.88,7.22,7.22,0,0,0,4.28,1.39A7.62,7.62,0,0,0,456,78.19a3.07,3.07,0,0,0,1.67-2.56c0-1.77-1.36-3.08-4.08-3.91l-4.76-1.19q-8.11-2-8.11-7.82a7.25,7.25,0,0,1,3.09-6.1,12.92,12.92,0,0,1,7.91-2.29,12.75,12.75,0,0,1,6.66,1.76,9.61,9.61,0,0,1,4.17,4.7l-4.65,1.93A5.86,5.86,0,0,0,455.27,60a8.1,8.1,0,0,0-4-1,6.67,6.67,0,0,0-3.65,1A2.94,2.94,0,0,0,446,62.48q0,2.38,4.48,3.4L454.67,67Q463,69,463,75.29Z"/><path class="cls-2" d="M197.07,64.35q0,8.5-5,13.55-5.66,6-14.9,6A20.9,20.9,0,0,1,156,62.71a20.9,20.9,0,0,1,21.09-21.2,22.65,22.65,0,0,1,8.44,1.58,16.84,16.84,0,0,1,6.52,4.48l-3.74,3.74a12.57,12.57,0,0,0-4.85-3.54,16,16,0,0,0-6.37-1.27,15.27,15.27,0,0,0-11.23,4.59,16,16,0,0,0-4.54,11.62,16,16,0,0,0,4.54,11.62,15.27,15.27,0,0,0,11.23,4.59,15.1,15.1,0,0,0,10.09-3.4,13.6,13.6,0,0,0,4.65-9.35H177.12V61.29h19.67A17.33,17.33,0,0,1,197.07,64.35Z"/><path class="cls-2" d="M203.42,83V42.41h12.42q9.28,0,14.93,5.62t5.64,14.68q0,9.12-5.64,14.71T215.84,83Zm5.22-35.6V78h7.2Q222.92,78,227,74t4.09-11.25q0-7.14-4.09-11.23T215.84,47.4Z"/><path class="cls-2" d="M281.65,64.35q0,8.5-5,13.55-5.67,6-14.91,6a20.9,20.9,0,0,1-21.09-21.2,20.9,20.9,0,0,1,21.09-21.2,22.74,22.74,0,0,1,8.45,1.58,16.88,16.88,0,0,1,6.51,4.48l-3.74,3.74a12.54,12.54,0,0,0-4.84-3.54,16,16,0,0,0-6.38-1.27,15.28,15.28,0,0,0-11.23,4.59,16,16,0,0,0-4.53,11.62,16,16,0,0,0,4.53,11.62,15.28,15.28,0,0,0,11.23,4.59,15.08,15.08,0,0,0,10.09-3.4,13.6,13.6,0,0,0,4.65-9.35H261.7V61.29h19.67A17.33,17.33,0,0,1,281.65,64.35Z"/><path class="cls-2" d="M301.15,83h-5.78l15.31-40.59h5.89L331.88,83H326.1l-3.91-11H305.12Zm12.36-34.18-6.63,18.31h13.49l-6.63-18.31Z"/><path class="cls-2" d="M341,42.41V83h-5.21V42.41Z"/><path class="cls-2" d="M359.32,96.16a15.49,15.49,0,0,1-4.37-.6,14.21,14.21,0,0,1-3.71-1.67,12.1,12.1,0,0,1-2.86-2.55,10.82,10.82,0,0,1-1.82-3.29l4.94-2a7.81,7.81,0,0,0,2.94,3.91,8.3,8.3,0,0,0,4.88,1.47A8.62,8.62,0,0,0,366,88.84a9.88,9.88,0,0,0,2.38-7V79.15h-.22a10.37,10.37,0,0,1-4,3.49,12,12,0,0,1-5.47,1.27,12.27,12.27,0,0,1-9.35-4.25,15.35,15.35,0,0,1-3.86-10.55,15.12,15.12,0,0,1,3.86-10.48,12.2,12.2,0,0,1,9.35-4.31,12,12,0,0,1,5.47,1.27,10.37,10.37,0,0,1,4,3.49h.22V55.23h5V81.81q0,6.69-3.8,10.49A13.79,13.79,0,0,1,359.32,96.16Zm.17-17a8,8,0,0,0,6.29-2.78,10.31,10.31,0,0,0,2.55-7.26,10.33,10.33,0,0,0-2.55-7.19,8,8,0,0,0-6.29-2.84,8.14,8.14,0,0,0-6.29,2.84,10.33,10.33,0,0,0-2.55,7.19,10.22,10.22,0,0,0,2.55,7.2A8.1,8.1,0,0,0,359.49,79.15Z"/><path class="cls-2" d="M386.42,45.64a3.69,3.69,0,1,1-1.08-2.6A3.54,3.54,0,0,1,386.42,45.64Zm-1.08,9.59V83h-5.22V55.23Z"/><path class="cls-2" d="M404.33,83.91a13.31,13.31,0,0,1-10.09-4.19,14.81,14.81,0,0,1-4-10.61,15.1,15.1,0,0,1,3.86-10.57,13.86,13.86,0,0,1,19.7-.22q3.66,4,3.65,11.19l-.05.57H395.6a9,9,0,0,0,2.72,6.57,8.69,8.69,0,0,0,6.24,2.5q5,0,7.82-5L417,76.43a14,14,0,0,1-5.19,5.5A14.35,14.35,0,0,1,404.33,83.91ZM396,65.77h15.93A6.94,6.94,0,0,0,409.58,61a8.23,8.23,0,0,0-5.7-1.9,7.62,7.62,0,0,0-5.08,1.81A8.7,8.7,0,0,0,396,65.77Z"/><path class="cls-2" d="M427.46,83h-5.21V55.23h5v4.53h.22A7.57,7.57,0,0,1,430.72,56a9.06,9.06,0,0,1,4.85-1.56,9.79,9.79,0,0,1,3.85.68l-1.58,5a8.55,8.55,0,0,0-3.06-.4,6.76,6.76,0,0,0-5.14,2.38,8,8,0,0,0-2.18,5.56Z"/><path class="cls-2" d="M463,75.29a7.56,7.56,0,0,1-3.17,6.13,12.59,12.59,0,0,1-8,2.49,12.75,12.75,0,0,1-7.37-2.18A12,12,0,0,1,439.88,76l4.65-2a8.62,8.62,0,0,0,3,3.88,7.22,7.22,0,0,0,4.28,1.39A7.62,7.62,0,0,0,456,78.19a3.07,3.07,0,0,0,1.67-2.56c0-1.77-1.36-3.08-4.08-3.91l-4.76-1.19q-8.11-2-8.11-7.82a7.25,7.25,0,0,1,3.09-6.1,12.92,12.92,0,0,1,7.91-2.29,12.75,12.75,0,0,1,6.66,1.76,9.61,9.61,0,0,1,4.17,4.7l-4.65,1.93A5.86,5.86,0,0,0,455.27,60a8.1,8.1,0,0,0-4-1,6.67,6.67,0,0,0-3.65,1A2.94,2.94,0,0,0,446,62.48q0,2.38,4.48,3.4L454.67,67Q463,69,463,75.29Z"/><g id="Group"><path id="Rectangle-Copy" class="cls-3" d="M52.86,35.62,20.24,54.45a9.34,9.34,0,0,0-3.41,12.76h0a9.34,9.34,0,0,0,12.76,3.41L62.2,51.79A9.34,9.34,0,0,0,65.62,39h0A9.34,9.34,0,0,0,52.86,35.62Z"/><path id="Rectangle-Copy-2" class="cls-4" d="M61.9,73.42,29.29,54.59A9.35,9.35,0,0,0,16.53,58h0A9.34,9.34,0,0,0,20,70.77L52.56,89.6a9.34,9.34,0,0,0,12.76-3.42h0A9.34,9.34,0,0,0,61.9,73.42Z"/><path id="Rectangle" class="cls-5" d="M83.72,73.72l32.61-18.83a9.34,9.34,0,0,1,12.76,3.42h0a9.34,9.34,0,0,1-3.42,12.76L93.06,89.9A9.34,9.34,0,0,1,80.3,86.48h0A9.34,9.34,0,0,1,83.72,73.72Z"/><path class="cls-6" d="M93.35,35.91,126,54.74a9.34,9.34,0,0,1,3.42,12.76h0a9.34,9.34,0,0,1-12.76,3.42L84,52.09a9.35,9.35,0,0,1-3.42-12.76h0A9.34,9.34,0,0,1,93.35,35.91Z"/></g><path class="cls-2" d="M578.64,96.79h-21c-11.83-5.25-21-14.28-27.55-27a1.72,1.72,0,0,0,0-.68,209,209,0,0,1-1.09-38.86,1.66,1.66,0,0,0-1.56-1.75,1.69,1.69,0,0,0-1.75,1.55,227.14,227.14,0,0,0,.15,30,107.4,107.4,0,0,1-3.73-12.89,1.34,1.34,0,0,0-.09-.26,151.3,151.3,0,0,1,2.82-18.79,1.66,1.66,0,0,0-3.24-.69q-1.47,6.91-2.27,13.41a1.67,1.67,0,0,0-.74.7,15.66,15.66,0,0,0-4.88,0,1.6,1.6,0,0,0-.51-.74,95.72,95.72,0,0,0-2.9-13.44,1.65,1.65,0,0,0-3.17.93,92.71,92.71,0,0,1,3.37,18.06c0,.11,0,.22,0,.33a.13.13,0,0,1,0,.06,2.56,2.56,0,0,0,0,.27A58.62,58.62,0,0,1,506,65.34a276.6,276.6,0,0,0,.89-35.23,1.66,1.66,0,1,0-3.31.1c.52,17.35-.13,31.84-1.93,43.06a1.23,1.23,0,0,0,0,.27Q493,87.07,476.09,96.79H458.17a1.37,1.37,0,1,0,0,2.73H578.64a1.37,1.37,0,0,0,0-2.73ZM518.72,65.08q.36,4.35,1.09,8.48c-.71-1.85-1.37-3.69-1.95-5.52C518.16,67.05,518.45,66.06,518.72,65.08ZM513.9,46.3l.06.83L514,48h4.29a78.85,78.85,0,0,1-2.19,14,78.28,78.28,0,0,1-2-11.67c-.07-.77-.12-1.54-.16-2.3,0-.28,0-.56-.05-.83l0-.83Zm-.37,18.8c.26,1,.55,2,.85,2.93q-1.18,3.7-2.71,7.48A99.72,99.72,0,0,0,513.53,65.1Zm-13,31.69H482.44q20.73-13.47,27.93-33.41A101.82,101.82,0,0,1,500.55,96.79Zm15.1,0c.18-1.56.35-3.16.49-4.82.15,1.66.31,3.26.5,4.82Zm12.13,0H518.3A209.64,209.64,0,0,1,517,75.44a1,1,0,0,1,0-.1c0-.58,0-1.18,0-1.77,0-.9,0-1.81,0-2.74V68.14a.81.81,0,1,0-1.62,0c0,1,0,1.87,0,2.8s0,1.76,0,2.63c0,.57,0,1.15,0,1.71l0,.09A210.71,210.71,0,0,1,514,96.79h-9.76c.36-.76,8.47-14.72,11.08-21.42,0-.59,0-1.2,0-1.8,0-.9,0-1.81,0-2.74s0-1.78,0-2.7a.82.82,0,0,1,.82-.82h0a.82.82,0,0,1,.83.82v2.6c0,1,0,1.9,0,2.84,0,.63,0,1.26,0,1.87,2.55,6.47,10.73,21.16,10.84,21.35Zm4,0h-.16c-.39-.69-.78-1.39-1.15-2.1C524.8,84,521.9,71.86,521.71,58,527.52,76,537.12,89,550.4,96.79Z"/><text class="cls-7" transform="translate(349.89 101.17)"> </text></svg>