<svg width="24" height="24" viewBox="0 0 24 24" fill="none" xmlns="http://www.w3.org/2000/svg">
<path d="M20.0992 5.68986C21.6592 4.56986 22.4092 5.13986 21.7692 6.94986L17.7292 18.2599C17.5892 18.6599 17.1192 18.9899 16.6992 18.9899H7.29922C6.87922 18.9899 6.40922 18.6599 6.26922 18.2599L2.12922 6.66986C1.53922 5.00986 2.22922 4.49986 3.64922 5.51986L7.54922 8.30986C8.19922 8.75986 8.93922 8.52986 9.21922 7.79986L10.9792 3.10986C11.5392 1.60986 12.4692 1.60986 13.0292 3.10986L14.7892 7.79986C15.0692 8.52986 15.8092 8.75986 16.4492 8.30986L17.0792 7.85986M6.49922 21.9999H17.4992M9.49922 13.9999H14.4992" stroke="white" stroke-width="1.5" stroke-linecap="round" stroke-linejoin="round"/>
</svg>
