<svg width="30" height="31" viewBox="0 0 30 31" fill="none" xmlns="http://www.w3.org/2000/svg">
<path d="M26.0731 7.97102C21.9822 7.55767 17.8667 7.34473 13.7635 7.34473C11.331 7.34473 8.89856 7.46999 6.46612 7.72051L3.95996 7.97102" stroke="#EA4334" stroke-width="1.5" stroke-linecap="round" stroke-linejoin="round"/>
<path d="M10.7168 6.70556L10.9871 5.06466C11.1836 3.8747 11.3311 2.98535 13.4072 2.98535H16.6259C18.7021 2.98535 18.8618 3.9248 19.0461 5.07719L19.3164 6.70556" stroke="#EA4334" stroke-width="1.5" stroke-linecap="round" stroke-linejoin="round"/>
<path d="M23.4321 11.9297L22.6336 24.5433C22.4985 26.5099 22.3879 28.0381 18.9604 28.0381H11.0733C7.64579 28.0381 7.53523 26.5099 7.40009 24.5433L6.60156 11.9297" stroke="#EA4334" stroke-width="1.5" stroke-linecap="round" stroke-linejoin="round"/>
<path d="M12.9648 21.1484H17.0558" stroke="#EA4334" stroke-width="1.5" stroke-linecap="round" stroke-linejoin="round"/>
<path d="M11.9453 16.1377H18.0879" stroke="#EA4334" stroke-width="1.5" stroke-linecap="round" stroke-linejoin="round"/>
</svg>
