<svg width="16" height="22" viewBox="0 0 16 22" fill="none" xmlns="http://www.w3.org/2000/svg">
<path d="M14.5 18.5H10.5M12.5 20.5V16.5M7.99004 20.81C6.17004 20.81 4.36004 20.35 2.98004 19.43C0.560039 17.81 0.560039 15.17 2.98004 13.56C5.73004 11.72 10.24 11.72 12.99 13.56M11.679 2.96C12.159 3.67 12.439 4.52 12.439 5.44C12.429 7.84 10.539 9.79 8.15904 9.87C8.05904 9.86 7.93904 9.86 7.82904 9.87C6.68124 9.83103 5.59368 9.34684 4.79667 8.51996C3.99966 7.69308 3.55578 6.58845 3.55904 5.44C3.55904 2.99 5.53904 1 7.99904 1" stroke="white" stroke-width="1.5" stroke-linecap="round" stroke-linejoin="round"/>
</svg>
